<svg width="28" height="25" viewBox="0 0 28 25" fill="none" xmlns="http://www.w3.org/2000/svg">
<g clip-path="url(#clip0_283_32502)">
<path d="M0 10.8387C0.0526014 10.6128 0.100819 10.3863 0.159265 10.1611C0.710118 8.03782 2.64103 6.52625 4.85175 6.50743C6.44513 6.49368 8.03924 6.50381 9.63263 6.50381C9.69399 6.50381 9.75536 6.50381 9.82988 6.50381C9.82988 9.75716 9.82988 12.9852 9.82988 16.2581C9.74075 16.2581 9.64504 16.2581 9.55007 16.2581C8.02025 16.2581 6.49042 16.2602 4.95987 16.2573C2.45619 16.253 0.421541 14.5047 0.0474873 12.0433C0.0409122 12.0013 0.0160726 11.963 0 11.9224C0 11.5612 0 11.2 0 10.8387Z" fill="#F36F20"/>
<path d="M11.4966 16.3058C11.4966 13.0062 11.4966 9.7405 11.4966 6.4582C12.7247 6.33368 13.8994 6.0318 15.0399 5.59165C17.3346 4.70556 19.3919 3.41913 21.3206 1.92132C21.9869 1.4037 22.6203 0.844829 23.2566 0.291021C23.5496 0.0361969 23.8579 -0.0912152 24.2283 0.0745652C24.595 0.238898 24.7214 0.545121 24.7214 0.933149C24.7185 7.89448 24.7185 14.8558 24.7214 21.8164C24.7214 22.2153 24.595 22.5302 24.213 22.6924C23.8265 22.8567 23.5174 22.704 23.2238 22.4397C20.8852 20.3302 18.3326 18.5377 15.4022 17.3157C14.1551 16.7967 12.862 16.4398 11.4966 16.3058Z" fill="#F36F20"/>
<path d="M10.9645 19.5085C10.8739 18.9554 10.7899 18.4407 10.6942 17.8507C11.2589 17.9231 11.7784 17.9847 12.2949 18.0636C12.3424 18.0708 12.3906 18.1816 12.4081 18.2518C12.5513 18.8288 12.6748 19.4108 12.8297 19.9849C13.0123 20.6603 12.6638 21.1323 11.9559 21.1338C11.446 21.1352 10.936 21.1338 10.3815 21.1338C10.5123 21.4255 10.6233 21.6963 10.7527 21.9583C10.9485 22.355 11.1552 22.7467 11.3598 23.1391C11.6841 23.7595 11.3137 24.3813 10.608 24.3842C9.28713 24.3893 7.96625 24.3871 6.64538 24.3849C6.18219 24.3842 5.92211 24.2047 5.75992 23.7653C5.05492 21.8541 4.55228 19.8922 4.27686 17.8391C4.52744 17.8543 4.76561 17.8804 5.00451 17.8811C6.34365 17.8855 7.68279 17.8898 9.02193 17.8768C9.26156 17.8746 9.34631 17.9492 9.39599 18.1736C9.48292 18.5689 9.60347 18.9576 9.72767 19.3435C9.74958 19.4115 9.85259 19.4977 9.922 19.5006C10.2661 19.5172 10.6124 19.5085 10.9645 19.5085Z" fill="#F36F20"/>
<path d="M26.3657 14.1608C26.3657 12.2989 26.3657 10.4615 26.3657 8.62131C27.1233 8.85152 27.9138 10.08 27.992 11.1391C28.0833 12.3669 27.3805 13.691 26.3657 14.1608Z" fill="#F36F20"/>
</g>
<defs>
<clipPath id="clip0_283_32502">
<rect width="28" height="24.3871" fill="white"/>
</clipPath>
</defs>
</svg>
